<svg width="148" height="35" viewBox="0 0 148 35" fill="none" xmlns="http://www.w3.org/2000/svg">
<g clip-path="url(#clip0_55_1487)">
<rect x="-3.42969" y="23.5752" width="25.938" height="7.23949" rx="0.712329" transform="rotate(-45 -3.42969 23.5752)" fill="#1F275E"/>
<rect x="4.19434" y="29.1528" width="24.4909" height="7.23949" rx="0.712329" transform="rotate(-45 4.19434 29.1528)" fill="#FEFDFC"/>
<rect x="-9.00562" y="15.9536" width="24.4909" height="7.23949" rx="0.712329" transform="rotate(-45 -9.00562 15.9536)" fill="#1F275E"/>
</g>
<path d="M40.7183 22.4119C39.7315 22.4119 38.8219 22.3003 37.9896 22.0772C37.1572 21.8627 36.4107 21.5924 35.75 21.2663C35.0978 20.9317 34.5358 20.5884 34.0638 20.2366C33.5919 19.8848 33.2186 19.5759 32.944 19.3099L35.0807 15.8604C35.3638 16.1092 35.7028 16.3881 36.0975 16.697C36.4922 17.0059 36.9341 17.302 37.4233 17.5851C37.9124 17.8597 38.4401 18.0914 39.0064 18.2802C39.5813 18.4604 40.1906 18.5505 40.8342 18.5505C41.4348 18.5505 41.9625 18.4561 42.4173 18.2673C42.8807 18.0785 43.2454 17.7997 43.5114 17.4307C43.7774 17.0531 43.9104 16.5855 43.9104 16.0277C43.9104 15.5214 43.8031 15.0924 43.5886 14.7406C43.3741 14.3802 43.0566 14.0584 42.6361 13.7752C42.2243 13.4835 41.7137 13.2003 41.1045 12.9257C40.5038 12.6425 39.8173 12.3336 39.045 11.999C38.4701 11.7416 37.9209 11.4498 37.3975 11.1237C36.8827 10.7891 36.4236 10.4029 36.0203 9.96531C35.617 9.52768 35.2952 9.03428 35.0549 8.48511C34.8232 7.92735 34.7074 7.30524 34.7074 6.61877C34.7074 5.80358 34.8704 5.02272 35.1965 4.27618C35.5226 3.52965 35.986 2.86463 36.5866 2.28113C37.1959 1.69763 37.9167 1.23426 38.749 0.891025C39.5899 0.54779 40.5252 0.376172 41.555 0.376172C42.3272 0.376172 43.0995 0.479143 43.8718 0.685083C44.6441 0.891025 45.3649 1.16132 46.0342 1.49598C46.7035 1.83063 47.2698 2.19532 47.7332 2.59004L45.9956 5.85936C45.6266 5.54186 45.2061 5.2587 44.7342 5.00985C44.2708 4.75242 43.7731 4.54648 43.2411 4.39203C42.7177 4.23757 42.1856 4.16034 41.6451 4.16034C41.0358 4.16034 40.5167 4.2676 40.0876 4.48213C39.6672 4.69665 39.3411 4.98411 39.1094 5.3445C38.8863 5.69632 38.7747 6.09104 38.7747 6.52867C38.7747 6.88906 38.8477 7.19797 38.9936 7.4554C39.148 7.70425 39.3625 7.92306 39.6371 8.11184C39.9117 8.29204 40.2421 8.46795 40.6282 8.63956C41.0144 8.8026 41.4391 8.97851 41.9025 9.16729C42.8979 9.58775 43.7989 10.0039 44.6055 10.4158C45.4121 10.8277 46.1028 11.2868 46.6777 11.793C47.2527 12.2907 47.6903 12.8742 47.9906 13.5435C48.2995 14.2128 48.454 15.0109 48.454 15.9376C48.454 17.2934 48.1279 18.4561 47.4758 19.4257C46.8322 20.3954 45.9312 21.1376 44.7728 21.6525C43.6144 22.1587 42.2629 22.4119 40.7183 22.4119ZM52.7309 22V0.762312H56.9012V22H52.7309ZM62.7112 22V0.762312H66.8815V18.3445H74.5528V22H62.7112ZM84.1753 22L75.2684 0.762312H79.9793L85.81 15.7317L91.6536 0.762312H96.3516L87.4446 22H84.1753ZM99.4649 22V0.762312H103.635V22H99.4649ZM109.445 22V0.762312H113.615L122.767 15.0495V0.762312H126.937V22H122.767L113.615 7.71283V22H109.445ZM132.724 22V0.762312H144.54V4.41777H136.894V9.52769H144.231V13.1831H136.894V18.3445H144.54V22H132.724Z" fill="#1F275E"/>
<path d="M40.2058 28.8366V32.7549H39.6747V28.8366H40.2058ZM49.3464 32.7549H48.8153V28.8366H49.3464L51.3516 31.8661V28.8366H51.8827V32.7549H51.3516L49.3464 29.7254V32.7549ZM61.5802 32.7549L60.0899 28.8366H60.6589L61.6127 31.3404C61.6995 31.5626 61.7753 31.7848 61.8566 32.0774C61.9488 31.7685 62.0409 31.5084 62.1059 31.335L63.0543 28.8366H63.6071L62.133 32.7549H61.5802ZM74.202 32.7549H71.812V28.8366H74.202V29.3243H72.3431V30.5491H74.0177V31.0206H72.3431V32.2617H74.202V32.7549ZM82.4397 29.8934C82.4397 29.2214 82.9816 28.7661 83.7891 28.7661C84.537 28.7661 85.0193 29.1834 85.0627 29.8609H84.5262C84.4991 29.4707 84.2227 29.243 83.7837 29.243C83.2905 29.243 82.9708 29.4923 82.9708 29.8771C82.9708 30.1915 83.1496 30.3811 83.5181 30.4679L84.1631 30.6196C84.8026 30.7659 85.1277 31.1128 85.1277 31.6656C85.1277 32.3701 84.5804 32.8199 83.7458 32.8199C82.9491 32.8199 82.418 32.4026 82.3855 31.7306H82.9274C82.9382 32.1045 83.2526 32.343 83.7458 32.343C84.266 32.343 84.5966 32.0991 84.5966 31.7089C84.5966 31.4 84.4286 31.2049 84.0547 31.1182L83.4097 30.9719C82.7702 30.8255 82.4397 30.457 82.4397 29.8934ZM93.0585 29.3243V28.8366H95.9471V29.3243H94.7711V32.7549H94.24V29.3243H93.0585ZM104.697 32.7549H104.177V28.8366H104.697L106.047 32.1316L107.396 28.8366H107.927V32.7549H107.407V31.2049C107.407 30.4733 107.412 30.2077 107.439 29.9313L106.296 32.7549H105.797L104.659 29.9422C104.686 30.1318 104.697 30.5329 104.697 31.0803V32.7549ZM118.925 32.7549H116.535V28.8366H118.925V29.3243H117.066V30.5491H118.741V31.0206H117.066V32.2617H118.925V32.7549ZM127.922 32.7549H127.39V28.8366H127.922L129.927 31.8661V28.8366H130.458V32.7549H129.927L127.922 29.7254V32.7549ZM138.687 29.3243V28.8366H141.575V29.3243H140.399V32.7549H139.868V29.3243H138.687Z" fill="#1F275E"/>
<defs>
<clipPath id="clip0_55_1487">
<rect width="25.2877" height="25.2877" rx="2.13699" fill="white"/>
</clipPath>
</defs>
</svg>
