<svg width="115" height="35" viewBox="0 0 115 35" fill="none" xmlns="http://www.w3.org/2000/svg">
<path d="M8.43072 22.4119C7.44392 22.4119 6.53434 22.3003 5.702 22.0772C4.86965 21.8627 4.12311 21.5924 3.46239 21.2663C2.81024 20.9317 2.24819 20.5884 1.77624 20.2366C1.30429 19.8848 0.931026 19.5759 0.656438 19.3099L2.79308 15.8604C3.07625 16.1092 3.41519 16.3881 3.80991 16.697C4.20463 17.0059 4.64655 17.302 5.13566 17.5851C5.62477 17.8597 6.15249 18.0914 6.71883 18.2802C7.29375 18.4604 7.90299 18.5505 8.54656 18.5505C9.14722 18.5505 9.67495 18.4561 10.1297 18.2673C10.5931 18.0785 10.9578 17.7997 11.2238 17.4307C11.4898 17.0531 11.6228 16.5855 11.6228 16.0277C11.6228 15.5214 11.5155 15.0924 11.301 14.7406C11.0865 14.3802 10.769 14.0584 10.3485 13.7752C9.93666 13.4835 9.4261 13.2003 8.81686 12.9257C8.2162 12.6425 7.52973 12.3336 6.75745 11.999C6.18253 11.7416 5.63335 11.4498 5.10992 11.1237C4.59506 10.7891 4.13599 10.4029 3.73268 9.96531C3.32938 9.52768 3.0076 9.03428 2.76734 8.48511C2.53565 7.92735 2.41981 7.30524 2.41981 6.61877C2.41981 5.80358 2.58285 5.02272 2.90892 4.27618C3.23499 3.52965 3.69836 2.86463 4.29902 2.28113C4.90827 1.69763 5.62906 1.23426 6.46141 0.891025C7.30233 0.54779 8.23765 0.376172 9.26735 0.376172C10.0396 0.376172 10.8119 0.479143 11.5842 0.685083C12.3565 0.891025 13.0773 1.16132 13.7466 1.49598C14.4159 1.83063 14.9822 2.19532 15.4456 2.59004L13.708 5.85936C13.339 5.54186 12.9185 5.2587 12.4466 5.00985C11.9832 4.75242 11.4855 4.54648 10.9535 4.39203C10.4301 4.23757 9.89805 4.16034 9.35745 4.16034C8.74821 4.16034 8.22907 4.2676 7.80002 4.48213C7.37956 4.69665 7.05349 4.98411 6.8218 5.3445C6.5987 5.69632 6.48715 6.09104 6.48715 6.52867C6.48715 6.88906 6.56009 7.19797 6.70596 7.4554C6.86042 7.70425 7.07494 7.92306 7.34953 8.11184C7.62412 8.29204 7.95448 8.46795 8.34062 8.63956C8.72676 8.8026 9.15151 8.97851 9.61488 9.16729C10.6103 9.58775 11.5113 10.0039 12.3179 10.4158C13.1245 10.8277 13.8152 11.2868 14.3901 11.793C14.9651 12.2907 15.4027 12.8742 15.703 13.5435C16.0119 14.2128 16.1664 15.0109 16.1664 15.9376C16.1664 17.2934 15.8403 18.4561 15.1882 19.4257C14.5446 20.3954 13.6436 21.1376 12.4852 21.6525C11.3268 22.1587 9.97528 22.4119 8.43072 22.4119ZM20.4433 22V0.762312H24.6136V22H20.4433ZM30.4236 22V0.762312H34.5939V18.3445H42.2652V22H30.4236ZM51.8877 22L42.9808 0.762312H47.6917L53.5224 15.7317L59.366 0.762312H64.064L55.1571 22H51.8877ZM67.1773 22V0.762312H71.3476V22H67.1773ZM77.1576 22V0.762312H81.3279L90.4794 15.0495V0.762312H94.6497V22H90.4794L81.3279 7.71283V22H77.1576ZM100.437 22V0.762312H112.252V4.41777H104.607V9.52769H111.944V13.1831H104.607V18.3445H112.252V22H100.437Z" fill="url(#paint0_linear_79_5060)"/>
<path d="M7.91848 28.8366V32.7549H7.38737V28.8366H7.91848ZM17.059 32.7549H16.5279V28.8366H17.059L19.0642 31.8661V28.8366H19.5954V32.7549H19.0642L17.059 29.7254V32.7549ZM29.2929 32.7549L27.8025 28.8366H28.3716L29.3254 31.3404C29.4121 31.5626 29.488 31.7848 29.5693 32.0774C29.6614 31.7685 29.7535 31.5084 29.8186 31.335L30.767 28.8366H31.3198L29.8457 32.7549H29.2929ZM41.9146 32.7549H39.5246V28.8366H41.9146V29.3243H40.0557V30.5491H41.7303V31.0206H40.0557V32.2617H41.9146V32.7549ZM50.1523 29.8934C50.1523 29.2214 50.6942 28.7661 51.5018 28.7661C52.2496 28.7661 52.732 29.1834 52.7753 29.8609H52.2388C52.2117 29.4707 51.9353 29.243 51.4963 29.243C51.0032 29.243 50.6834 29.4923 50.6834 29.8771C50.6834 30.1915 50.8623 30.3811 51.2308 30.4679L51.8757 30.6196C52.5152 30.7659 52.8404 31.1128 52.8404 31.6656C52.8404 32.3701 52.293 32.8199 51.4584 32.8199C50.6617 32.8199 50.1306 32.4026 50.0981 31.7306H50.6401C50.6509 32.1045 50.9652 32.343 51.4584 32.343C51.9787 32.343 52.3093 32.0991 52.3093 31.7089C52.3093 31.4 52.1413 31.2049 51.7673 31.1182L51.1224 30.9719C50.4829 30.8255 50.1523 30.457 50.1523 29.8934ZM60.7712 29.3243V28.8366H63.6598V29.3243H62.4837V32.7549H61.9526V29.3243H60.7712ZM72.4097 32.7549H71.8894V28.8366H72.4097L73.7592 32.1316L75.1086 28.8366H75.6397V32.7549H75.1195V31.2049C75.1195 30.4733 75.1249 30.2077 75.152 29.9313L74.0085 32.7549H73.5099L72.3718 29.9422C72.3989 30.1318 72.4097 30.5329 72.4097 31.0803V32.7549ZM86.6378 32.7549H84.2478V28.8366H86.6378V29.3243H84.7789V30.5491H86.4535V31.0206H84.7789V32.2617H86.6378V32.7549ZM95.6342 32.7549H95.1031V28.8366H95.6342L97.6394 31.8661V28.8366H98.1706V32.7549H97.6394L95.6342 29.7254V32.7549ZM106.399 29.3243V28.8366H109.288V29.3243H108.112V32.7549H107.581V29.3243H106.399Z" fill="white"/>
<defs>
<linearGradient id="paint0_linear_79_5060" x1="-37.5" y1="-42.5" x2="57.5" y2="29" gradientUnits="userSpaceOnUse">
<stop stop-color="white"/>
<stop offset="0.239018" stop-color="#C5C5C5"/>
<stop offset="0.265948" stop-color="white"/>
<stop offset="1" stop-color="white"/>
</linearGradient>
</defs>
</svg>
